<svg version="1.2" xmlns="http://www.w3.org/2000/svg" viewBox="0 0 64 69" width="64" height="69"><defs><clipPath clipPathUnits="userSpaceOnUse" id="cp1"><path d="m-516-1381h1349v5774h-1349z"/></clipPath><filter x="-50%" y="-50%" width="200%" height="200%" id="f1" ><feDropShadow dx="0" dy="0" stdDeviation="2.916666666666667" flood-color="#000000" flood-opacity=".1"/></filter></defs><style>.a{filter:url(#f1);fill:#5542fe}</style><g clip-path="url(#cp1)"><path fill-rule="evenodd" class="a" d="m41.6 30.4c5.2 3.3 9.9 4.9 13.9 4.5 0.7 14.2-4.6 22.6-13.8 26.1-9-3.3-14.3-11.3-13.9-26.3 4.7 0.2 9.3-0.8 13.8-4.3zm6.3-15.2c0.7 0 1.4 0.4 1.9 0.9 0.6 0.5 0.9 1.2 0.9 1.9v12.2q-1.2-0.4-2.4-0.9v-11.3q0-0.1-0.1-0.2-0.2-0.2-0.3-0.2h-3.9v9.5q-1.2-0.6-2.4-1.4v-14.9q0-0.2-0.1-0.3-0.2-0.1-0.3-0.1h-29.4q-0.2 0-0.3 0.1-0.1 0.1-0.1 0.3v33.2q0 0.1 0.1 0.3 0.1 0.1 0.3 0.1h12.6q0.3 1.2 0.6 2.4h-6.9v4.4q0 0.2 0.1 0.3 0.1 0.1 0.3 0.1h8.2q0.5 1.3 1.1 2.4h-9.3c-0.8 0-1.5-0.3-2-0.8-0.5-0.5-0.8-1.2-0.8-2v-4.4h-3.9c-0.8 0-1.5-0.3-2-0.8-0.5-0.6-0.8-1.3-0.8-2v-33.2c0-0.8 0.3-1.5 0.8-2 0.5-0.5 1.2-0.8 2-0.8h29.4c0.7 0 1.4 0.3 1.9 0.8 0.6 0.5 0.9 1.2 0.9 2v4.4zm-30.8 15.3c-0.6 0-1-0.6-1-1.2 0-0.7 0.4-1.2 1-1.2h6.5c0.6 0 1.1 0.5 1.1 1.2 0 0.6-0.5 1.2-1.1 1.2zm0-12.8c-0.6 0-1.1-0.6-1.1-1.2 0-0.7 0.5-1.2 1.1-1.2h17.9c0.6 0 1.1 0.5 1.1 1.2 0 0.6-0.5 1.2-1.1 1.2zm0 6.4c-0.6 0-1.1-0.6-1.1-1.2 0-0.7 0.5-1.2 1.1-1.2h17.9c0.6 0 1.1 0.5 1.1 1.2 0 0.6-0.5 1.2-1.1 1.2zm12.2 11.9c-0.4 13.2 4.3 20.3 12.3 23.2 8.2-3.1 12.8-10.5 12.2-23-3.5 0.3-7.7-1.1-12.3-4-4 3.1-8 4-12.2 3.8zm12.3-0.7c3.6 2.2 6.8 3.3 9.5 3 0.5 9.7-3.1 15.4-9.4 17.8q-0.1 0-0.2 0v-20.7z"/></g></svg>