<?xml version="1.0" encoding="utf-8"?>
<!-- Generator: Adobe Illustrator 21.0.0, SVG Export Plug-In . SVG Version: 6.00 Build 0)  -->
<svg version="1.1" id="Layer_1" xmlns="http://www.w3.org/2000/svg" xmlns:xlink="http://www.w3.org/1999/xlink" x="0px" y="0px"
	 viewBox="0 0 700 227" style="enable-background:new 0 0 700 227;" xml:space="preserve">
<style type="text/css">
	.st0{fill:url(#SVGID_1_);}
	.st1{fill:url(#SVGID_2_);}
	.st2{fill:url(#SVGID_3_);}
	.st3{fill:url(#SVGID_4_);}
	.st4{fill:#109247;}
	.st5{fill:#F7931E;}
	.st6{fill:#0071BC;}
	.st7{fill:#999999;}
	.st8{fill:#EFD914;}
</style>
<g>
	<path d="M135.5,72.4c-3.6-2.4-7.9-3.7-12.4-3.7c-8.9,0-17.1,5.4-20.7,13.6l-33,76.2h13.9c5,0,9.8-1.6,13.7-4.3
		c4-2.7,7.1-6.6,8.9-11.4h0.1l1.1-3h31.5l1.9,4.9c4,8.3,12.5,13.7,21.8,13.7h14.4l-33-76.2C142,78.2,139.1,74.7,135.5,72.4z
		 M119.2,108.1l3.7-9.7l3.4,8.8l4.4,11.5h-15.5l3.8-10L119.2,108.1z"/>
	<path d="M250.3,72.8c-6.1-2.7-13.3-4.1-21.5-4.1h-19.5c-12.9,0-23.3,10.5-23.3,23.6v66.3h30v-22.1h12.8c8.2,0,15.4-1.4,21.5-4.1
		c6.1-2.7,10.8-6.7,14.1-11.8c3.3-5.1,5-11.1,5-18c0-6.8-1.7-12.8-5-18C261.1,79.4,256.4,75.5,250.3,72.8z M236.1,110.3
		c-2,1.8-5.1,2.8-9.2,2.8H216V92h10.9c4.1,0,7.1,0.9,9.2,2.8c2,1.8,3.1,4.4,3.1,7.8C239.1,105.9,238.1,108.5,236.1,110.3z"/>
	<path d="M411.2,89.5c0-11.5-9.2-20.8-20.6-20.8h-9.4v69c0,11.5,9.2,20.8,20.6,20.8h49.6V135h-40.2V89.5z"/>
	<path d="M492.5,89.5c0-11.5-9.2-20.8-20.6-20.8h-9.4v69c0,11.5,9.2,20.8,20.6,20.8h49.6V135h-40.2V89.5z"/>
	<path d="M326,68.5c-24.6,0-44.6,20.1-44.6,45s20,45,44.6,45s44.6-20.1,44.6-45S350.6,68.5,326,68.5z M326,133.2
		c-10.8,0-19.5-8.8-19.5-19.7s8.8-19.7,19.5-19.7c10.8,0,19.5,8.8,19.5,19.7S336.8,133.2,326,133.2z"/>
	<path d="M585.9,68.5c-24.6,0-44.6,20.1-44.6,45s20,45,44.6,45c24.6,0,44.6-20.1,44.6-45S610.5,68.5,585.9,68.5z M585.9,133.2
		c-10.8,0-19.5-8.8-19.5-19.7c0-10.9,8.8-19.7,19.5-19.7c10.8,0,19.5,8.8,19.5,19.7C605.4,124.4,596.7,133.2,585.9,133.2z"/>
</g>
</svg>
